<mxfile host="app.diagrams.net" modified="2021-06-21T02:39:59.555Z" agent="5.0 (X11; Linux x86_64) AppleWebKit/537.36 (KHTML, like Gecko) Chrome/91.0.4472.101 Safari/537.36" etag="PWB2wF6g7jLaBAW9j8ZG" version="14.8.0" type="github">
  <diagram id="bYlpOJYHZ6rOK8gQS2Nv" name="Page-1">
    <mxGraphModel dx="1306" dy="1653" grid="1" gridSize="10" guides="1" tooltips="1" connect="1" arrows="1" fold="1" page="1" pageScale="1" pageWidth="850" pageHeight="1100" math="0" shadow="0">
      <root>
        <mxCell id="0" />
        <mxCell id="1" parent="0" />
        <mxCell id="yj1wivbqtyOfqSycAJC5-1" value="Students" style="shape=umlActor;verticalLabelPosition=bottom;verticalAlign=top;html=1;outlineConnect=0;" vertex="1" parent="1">
          <mxGeometry x="60" y="-10" width="30" height="60" as="geometry" />
        </mxCell>
        <mxCell id="yj1wivbqtyOfqSycAJC5-2" value="Create Teams" style="ellipse;whiteSpace=wrap;html=1;" vertex="1" parent="1">
          <mxGeometry x="750" y="-410" width="100" height="40" as="geometry" />
        </mxCell>
        <mxCell id="yj1wivbqtyOfqSycAJC5-3" value="Admin" style="shape=umlActor;verticalLabelPosition=bottom;verticalAlign=top;html=1;outlineConnect=0;" vertex="1" parent="1">
          <mxGeometry x="970" y="-350" width="30" height="60" as="geometry" />
        </mxCell>
        <mxCell id="yj1wivbqtyOfqSycAJC5-4" value="Add members" style="ellipse;whiteSpace=wrap;html=1;" vertex="1" parent="1">
          <mxGeometry x="750" y="-300" width="100" height="40" as="geometry" />
        </mxCell>
        <mxCell id="yj1wivbqtyOfqSycAJC5-5" value="Remove members" style="ellipse;whiteSpace=wrap;html=1;" vertex="1" parent="1">
          <mxGeometry x="750" y="-240" width="100" height="40" as="geometry" />
        </mxCell>
        <mxCell id="yj1wivbqtyOfqSycAJC5-7" value="Delete Teams" style="ellipse;whiteSpace=wrap;html=1;" vertex="1" parent="1">
          <mxGeometry x="750" y="-350" width="100" height="40" as="geometry" />
        </mxCell>
        <mxCell id="yj1wivbqtyOfqSycAJC5-8" value="Update teams records" style="ellipse;whiteSpace=wrap;html=1;" vertex="1" parent="1">
          <mxGeometry x="560" y="-380" width="100" height="40" as="geometry" />
        </mxCell>
        <mxCell id="yj1wivbqtyOfqSycAJC5-9" value="&amp;lt;&amp;lt;extend&amp;gt;&amp;gt;" style="endArrow=none;html=1;exitX=1;exitY=0.5;exitDx=0;exitDy=0;entryX=0;entryY=0.5;entryDx=0;entryDy=0;" edge="1" parent="1" source="yj1wivbqtyOfqSycAJC5-8" target="yj1wivbqtyOfqSycAJC5-7">
          <mxGeometry width="50" height="50" relative="1" as="geometry">
            <mxPoint x="610" y="-320" as="sourcePoint" />
            <mxPoint x="660" y="-370" as="targetPoint" />
          </mxGeometry>
        </mxCell>
        <mxCell id="yj1wivbqtyOfqSycAJC5-10" value="&amp;lt;&amp;lt;extend&amp;gt;&amp;gt;" style="endArrow=none;html=1;exitX=1;exitY=0.5;exitDx=0;exitDy=0;entryX=0.03;entryY=0.675;entryDx=0;entryDy=0;entryPerimeter=0;" edge="1" parent="1" source="yj1wivbqtyOfqSycAJC5-8" target="yj1wivbqtyOfqSycAJC5-2">
          <mxGeometry width="50" height="50" relative="1" as="geometry">
            <mxPoint x="695" y="-330" as="sourcePoint" />
            <mxPoint x="760" y="-320" as="targetPoint" />
          </mxGeometry>
        </mxCell>
        <mxCell id="yj1wivbqtyOfqSycAJC5-15" value="Update members records" style="ellipse;whiteSpace=wrap;html=1;" vertex="1" parent="1">
          <mxGeometry x="570" y="-270" width="100" height="40" as="geometry" />
        </mxCell>
        <mxCell id="yj1wivbqtyOfqSycAJC5-16" value="&amp;lt;&amp;lt;extend&amp;gt;&amp;gt;" style="endArrow=none;html=1;exitX=1;exitY=0.5;exitDx=0;exitDy=0;entryX=0;entryY=0.5;entryDx=0;entryDy=0;" edge="1" source="yj1wivbqtyOfqSycAJC5-15" parent="1" target="yj1wivbqtyOfqSycAJC5-5">
          <mxGeometry width="50" height="50" relative="1" as="geometry">
            <mxPoint x="589" y="-217" as="sourcePoint" />
            <mxPoint x="729" y="-227" as="targetPoint" />
          </mxGeometry>
        </mxCell>
        <mxCell id="yj1wivbqtyOfqSycAJC5-17" value="&amp;lt;&amp;lt;extend&amp;gt;&amp;gt;" style="endArrow=none;html=1;exitX=1;exitY=0.5;exitDx=0;exitDy=0;entryX=0;entryY=0.5;entryDx=0;entryDy=0;" edge="1" source="yj1wivbqtyOfqSycAJC5-15" parent="1" target="yj1wivbqtyOfqSycAJC5-4">
          <mxGeometry width="50" height="50" relative="1" as="geometry">
            <mxPoint x="674" y="-227" as="sourcePoint" />
            <mxPoint x="732" y="-280" as="targetPoint" />
          </mxGeometry>
        </mxCell>
        <mxCell id="yj1wivbqtyOfqSycAJC5-18" value="" style="endArrow=none;html=1;entryX=1;entryY=0.5;entryDx=0;entryDy=0;exitX=0.5;exitY=0.5;exitDx=0;exitDy=0;exitPerimeter=0;" edge="1" parent="1" source="yj1wivbqtyOfqSycAJC5-3" target="yj1wivbqtyOfqSycAJC5-2">
          <mxGeometry width="50" height="50" relative="1" as="geometry">
            <mxPoint x="610" y="-320" as="sourcePoint" />
            <mxPoint x="660" y="-370" as="targetPoint" />
          </mxGeometry>
        </mxCell>
        <mxCell id="yj1wivbqtyOfqSycAJC5-20" value="" style="endArrow=none;html=1;entryX=1;entryY=0.5;entryDx=0;entryDy=0;exitX=0.5;exitY=0.5;exitDx=0;exitDy=0;exitPerimeter=0;" edge="1" parent="1" source="yj1wivbqtyOfqSycAJC5-3" target="yj1wivbqtyOfqSycAJC5-7">
          <mxGeometry width="50" height="50" relative="1" as="geometry">
            <mxPoint x="995" y="-310" as="sourcePoint" />
            <mxPoint x="860" y="-380" as="targetPoint" />
          </mxGeometry>
        </mxCell>
        <mxCell id="yj1wivbqtyOfqSycAJC5-21" value="" style="endArrow=none;html=1;entryX=1;entryY=0.5;entryDx=0;entryDy=0;" edge="1" parent="1" target="yj1wivbqtyOfqSycAJC5-4">
          <mxGeometry width="50" height="50" relative="1" as="geometry">
            <mxPoint x="980" y="-320" as="sourcePoint" />
            <mxPoint x="870" y="-370" as="targetPoint" />
          </mxGeometry>
        </mxCell>
        <mxCell id="yj1wivbqtyOfqSycAJC5-22" value="" style="endArrow=none;html=1;entryX=1;entryY=0.5;entryDx=0;entryDy=0;exitX=0.5;exitY=0.5;exitDx=0;exitDy=0;exitPerimeter=0;" edge="1" parent="1" source="yj1wivbqtyOfqSycAJC5-3" target="yj1wivbqtyOfqSycAJC5-5">
          <mxGeometry width="50" height="50" relative="1" as="geometry">
            <mxPoint x="1015" y="-290" as="sourcePoint" />
            <mxPoint x="880" y="-360" as="targetPoint" />
          </mxGeometry>
        </mxCell>
        <mxCell id="yj1wivbqtyOfqSycAJC5-24" value="Join classes" style="ellipse;whiteSpace=wrap;html=1;" vertex="1" parent="1">
          <mxGeometry x="180" y="-50" width="100" height="40" as="geometry" />
        </mxCell>
        <mxCell id="yj1wivbqtyOfqSycAJC5-25" value="Leave classes" style="ellipse;whiteSpace=wrap;html=1;" vertex="1" parent="1">
          <mxGeometry x="180" y="10" width="100" height="40" as="geometry" />
        </mxCell>
        <mxCell id="yj1wivbqtyOfqSycAJC5-26" value="Submit Assignments" style="ellipse;whiteSpace=wrap;html=1;" vertex="1" parent="1">
          <mxGeometry x="180" y="70" width="100" height="40" as="geometry" />
        </mxCell>
        <mxCell id="yj1wivbqtyOfqSycAJC5-27" value="Chat with team members" style="ellipse;whiteSpace=wrap;html=1;" vertex="1" parent="1">
          <mxGeometry x="180" y="140" width="100" height="40" as="geometry" />
        </mxCell>
        <mxCell id="yj1wivbqtyOfqSycAJC5-28" value="" style="endArrow=none;html=1;entryX=0;entryY=0.5;entryDx=0;entryDy=0;" edge="1" parent="1" target="yj1wivbqtyOfqSycAJC5-24">
          <mxGeometry width="50" height="50" relative="1" as="geometry">
            <mxPoint x="80" y="20" as="sourcePoint" />
            <mxPoint x="480" y="-30" as="targetPoint" />
          </mxGeometry>
        </mxCell>
        <mxCell id="yj1wivbqtyOfqSycAJC5-29" value="" style="endArrow=none;html=1;exitX=0.5;exitY=0.5;exitDx=0;exitDy=0;exitPerimeter=0;" edge="1" parent="1" source="yj1wivbqtyOfqSycAJC5-1" target="yj1wivbqtyOfqSycAJC5-25">
          <mxGeometry width="50" height="50" relative="1" as="geometry">
            <mxPoint x="90" y="30" as="sourcePoint" />
            <mxPoint x="190" y="-20" as="targetPoint" />
          </mxGeometry>
        </mxCell>
        <mxCell id="yj1wivbqtyOfqSycAJC5-30" value="" style="endArrow=none;html=1;exitX=0.5;exitY=0.5;exitDx=0;exitDy=0;exitPerimeter=0;entryX=0;entryY=0.5;entryDx=0;entryDy=0;" edge="1" parent="1" source="yj1wivbqtyOfqSycAJC5-1" target="yj1wivbqtyOfqSycAJC5-26">
          <mxGeometry width="50" height="50" relative="1" as="geometry">
            <mxPoint x="85" y="30" as="sourcePoint" />
            <mxPoint x="190.63794396436538" y="36.81535122350738" as="targetPoint" />
          </mxGeometry>
        </mxCell>
        <mxCell id="yj1wivbqtyOfqSycAJC5-31" value="" style="endArrow=none;html=1;exitX=0.5;exitY=0.5;exitDx=0;exitDy=0;exitPerimeter=0;entryX=0.05;entryY=0.225;entryDx=0;entryDy=0;entryPerimeter=0;" edge="1" parent="1" source="yj1wivbqtyOfqSycAJC5-1" target="yj1wivbqtyOfqSycAJC5-27">
          <mxGeometry width="50" height="50" relative="1" as="geometry">
            <mxPoint x="85" y="30" as="sourcePoint" />
            <mxPoint x="190" y="170" as="targetPoint" />
          </mxGeometry>
        </mxCell>
        <mxCell id="yj1wivbqtyOfqSycAJC5-32" value="Penalty for late&amp;nbsp;&lt;br&gt;submission" style="ellipse;whiteSpace=wrap;html=1;" vertex="1" parent="1">
          <mxGeometry x="390" y="70" width="100" height="40" as="geometry" />
        </mxCell>
        <mxCell id="yj1wivbqtyOfqSycAJC5-34" value="&amp;lt;&amp;lt;include&amp;gt;&amp;gt;" style="endArrow=none;html=1;exitX=1;exitY=0.5;exitDx=0;exitDy=0;entryX=0;entryY=0.5;entryDx=0;entryDy=0;" edge="1" parent="1" source="yj1wivbqtyOfqSycAJC5-26" target="yj1wivbqtyOfqSycAJC5-32">
          <mxGeometry width="50" height="50" relative="1" as="geometry">
            <mxPoint x="430" y="120" as="sourcePoint" />
            <mxPoint x="480" y="70" as="targetPoint" />
          </mxGeometry>
        </mxCell>
        <mxCell id="yj1wivbqtyOfqSycAJC5-35" value="Teacher" style="shape=umlActor;verticalLabelPosition=bottom;verticalAlign=top;html=1;outlineConnect=0;" vertex="1" parent="1">
          <mxGeometry x="60" y="-320" width="30" height="60" as="geometry" />
        </mxCell>
        <mxCell id="yj1wivbqtyOfqSycAJC5-36" value="Organize a team meeting" style="ellipse;whiteSpace=wrap;html=1;" vertex="1" parent="1">
          <mxGeometry x="180" y="-370" width="100" height="40" as="geometry" />
        </mxCell>
        <mxCell id="yj1wivbqtyOfqSycAJC5-37" value="Stop team meetings" style="ellipse;whiteSpace=wrap;html=1;" vertex="1" parent="1">
          <mxGeometry x="180" y="-330" width="100" height="50" as="geometry" />
        </mxCell>
        <mxCell id="yj1wivbqtyOfqSycAJC5-38" value="Create assignments" style="ellipse;whiteSpace=wrap;html=1;" vertex="1" parent="1">
          <mxGeometry x="190" y="-220" width="100" height="40" as="geometry" />
        </mxCell>
        <mxCell id="yj1wivbqtyOfqSycAJC5-39" value="Chat with team members" style="ellipse;whiteSpace=wrap;html=1;" vertex="1" parent="1">
          <mxGeometry x="180" y="-110" width="100" height="40" as="geometry" />
        </mxCell>
        <mxCell id="yj1wivbqtyOfqSycAJC5-40" value="" style="endArrow=none;html=1;entryX=0;entryY=0.5;entryDx=0;entryDy=0;" edge="1" target="yj1wivbqtyOfqSycAJC5-36" parent="1">
          <mxGeometry width="50" height="50" relative="1" as="geometry">
            <mxPoint x="80" y="-290" as="sourcePoint" />
            <mxPoint x="480" y="-340" as="targetPoint" />
          </mxGeometry>
        </mxCell>
        <mxCell id="yj1wivbqtyOfqSycAJC5-41" value="" style="endArrow=none;html=1;exitX=0.5;exitY=0.5;exitDx=0;exitDy=0;exitPerimeter=0;" edge="1" source="yj1wivbqtyOfqSycAJC5-35" target="yj1wivbqtyOfqSycAJC5-37" parent="1">
          <mxGeometry width="50" height="50" relative="1" as="geometry">
            <mxPoint x="90" y="-280" as="sourcePoint" />
            <mxPoint x="190" y="-330" as="targetPoint" />
          </mxGeometry>
        </mxCell>
        <mxCell id="yj1wivbqtyOfqSycAJC5-42" value="" style="endArrow=none;html=1;exitX=0.5;exitY=0.5;exitDx=0;exitDy=0;exitPerimeter=0;entryX=0;entryY=0.5;entryDx=0;entryDy=0;" edge="1" source="yj1wivbqtyOfqSycAJC5-35" target="yj1wivbqtyOfqSycAJC5-38" parent="1">
          <mxGeometry width="50" height="50" relative="1" as="geometry">
            <mxPoint x="85" y="-280" as="sourcePoint" />
            <mxPoint x="190.63794396436538" y="-273.1846487764926" as="targetPoint" />
          </mxGeometry>
        </mxCell>
        <mxCell id="yj1wivbqtyOfqSycAJC5-43" value="" style="endArrow=none;html=1;exitX=0.5;exitY=0.5;exitDx=0;exitDy=0;exitPerimeter=0;entryX=0.05;entryY=0.225;entryDx=0;entryDy=0;entryPerimeter=0;" edge="1" source="yj1wivbqtyOfqSycAJC5-35" target="yj1wivbqtyOfqSycAJC5-39" parent="1">
          <mxGeometry width="50" height="50" relative="1" as="geometry">
            <mxPoint x="85" y="-280" as="sourcePoint" />
            <mxPoint x="190" y="-140" as="targetPoint" />
          </mxGeometry>
        </mxCell>
        <mxCell id="yj1wivbqtyOfqSycAJC5-44" value="&amp;lt;&amp;lt;include&amp;gt;&amp;gt;" style="endArrow=none;html=1;exitX=1;exitY=0.5;exitDx=0;exitDy=0;entryX=0;entryY=0.5;entryDx=0;entryDy=0;" edge="1" source="yj1wivbqtyOfqSycAJC5-38" parent="1">
          <mxGeometry width="50" height="50" relative="1" as="geometry">
            <mxPoint x="440" y="-170" as="sourcePoint" />
            <mxPoint x="400" y="-200" as="targetPoint" />
          </mxGeometry>
        </mxCell>
        <mxCell id="yj1wivbqtyOfqSycAJC5-45" value="Set assignment due date" style="ellipse;whiteSpace=wrap;html=1;" vertex="1" parent="1">
          <mxGeometry x="390" y="-220" width="100" height="40" as="geometry" />
        </mxCell>
        <mxCell id="yj1wivbqtyOfqSycAJC5-46" value="Upload files" style="ellipse;whiteSpace=wrap;html=1;" vertex="1" parent="1">
          <mxGeometry x="180" y="-430" width="100" height="40" as="geometry" />
        </mxCell>
        <mxCell id="yj1wivbqtyOfqSycAJC5-47" value="" style="endArrow=none;html=1;entryX=0;entryY=0.5;entryDx=0;entryDy=0;" edge="1" parent="1" target="yj1wivbqtyOfqSycAJC5-46">
          <mxGeometry width="50" height="50" relative="1" as="geometry">
            <mxPoint x="80" y="-290" as="sourcePoint" />
            <mxPoint x="190" y="-330" as="targetPoint" />
          </mxGeometry>
        </mxCell>
        <mxCell id="yj1wivbqtyOfqSycAJC5-48" value="Take attendance" style="ellipse;whiteSpace=wrap;html=1;" vertex="1" parent="1">
          <mxGeometry x="180" y="-160" width="100" height="40" as="geometry" />
        </mxCell>
        <mxCell id="yj1wivbqtyOfqSycAJC5-49" value="&amp;lt;&amp;lt;extend&amp;gt;&amp;gt;" style="endArrow=none;html=1;exitX=1;exitY=0.5;exitDx=0;exitDy=0;entryX=0;entryY=0.5;entryDx=0;entryDy=0;" edge="1" source="yj1wivbqtyOfqSycAJC5-48" parent="1">
          <mxGeometry width="50" height="50" relative="1" as="geometry">
            <mxPoint x="430" y="-110" as="sourcePoint" />
            <mxPoint x="390" y="-140" as="targetPoint" />
          </mxGeometry>
        </mxCell>
        <mxCell id="yj1wivbqtyOfqSycAJC5-50" value="Update attendance &lt;br&gt;record" style="ellipse;whiteSpace=wrap;html=1;" vertex="1" parent="1">
          <mxGeometry x="390" y="-160" width="100" height="40" as="geometry" />
        </mxCell>
        <mxCell id="yj1wivbqtyOfqSycAJC5-51" value="" style="endArrow=none;html=1;entryX=0.028;entryY=0.322;entryDx=0;entryDy=0;entryPerimeter=0;" edge="1" parent="1" target="yj1wivbqtyOfqSycAJC5-48">
          <mxGeometry width="50" height="50" relative="1" as="geometry">
            <mxPoint x="75" y="-290" as="sourcePoint" />
            <mxPoint x="170" y="-170" as="targetPoint" />
          </mxGeometry>
        </mxCell>
        <mxCell id="yj1wivbqtyOfqSycAJC5-52" value="Set user roles&amp;nbsp;" style="ellipse;whiteSpace=wrap;html=1;" vertex="1" parent="1">
          <mxGeometry x="390" y="-370" width="100" height="40" as="geometry" />
        </mxCell>
        <mxCell id="yj1wivbqtyOfqSycAJC5-53" value="" style="endArrow=none;html=1;exitX=1;exitY=0.5;exitDx=0;exitDy=0;entryX=0;entryY=0.5;entryDx=0;entryDy=0;" edge="1" parent="1" source="yj1wivbqtyOfqSycAJC5-36" target="yj1wivbqtyOfqSycAJC5-52">
          <mxGeometry width="50" height="50" relative="1" as="geometry">
            <mxPoint x="340" y="-260" as="sourcePoint" />
            <mxPoint x="390" y="-310" as="targetPoint" />
          </mxGeometry>
        </mxCell>
        <mxCell id="yj1wivbqtyOfqSycAJC5-54" value="&amp;lt;&amp;lt;extend&amp;gt;&amp;gt;" style="edgeLabel;html=1;align=center;verticalAlign=middle;resizable=0;points=[];" vertex="1" connectable="0" parent="yj1wivbqtyOfqSycAJC5-53">
          <mxGeometry x="-0.339" y="4" relative="1" as="geometry">
            <mxPoint x="24" y="4" as="offset" />
          </mxGeometry>
        </mxCell>
        <mxCell id="yj1wivbqtyOfqSycAJC5-55" value="Add/ Remove members" style="ellipse;whiteSpace=wrap;html=1;" vertex="1" parent="1">
          <mxGeometry x="180" y="-270" width="100" height="40" as="geometry" />
        </mxCell>
        <mxCell id="yj1wivbqtyOfqSycAJC5-56" value="" style="endArrow=none;html=1;entryX=0;entryY=0.5;entryDx=0;entryDy=0;" edge="1" parent="1" source="yj1wivbqtyOfqSycAJC5-35" target="yj1wivbqtyOfqSycAJC5-55">
          <mxGeometry width="50" height="50" relative="1" as="geometry">
            <mxPoint x="630" y="-130" as="sourcePoint" />
            <mxPoint x="680" y="-180" as="targetPoint" />
          </mxGeometry>
        </mxCell>
        <mxCell id="yj1wivbqtyOfqSycAJC5-57" style="edgeStyle=orthogonalEdgeStyle;rounded=0;orthogonalLoop=1;jettySize=auto;html=1;exitX=0;exitY=1;exitDx=0;exitDy=0;exitPerimeter=0;" edge="1" parent="1" source="yj1wivbqtyOfqSycAJC5-35" target="yj1wivbqtyOfqSycAJC5-35">
          <mxGeometry relative="1" as="geometry" />
        </mxCell>
        <mxCell id="yj1wivbqtyOfqSycAJC5-58" value="" style="endArrow=none;html=1;exitX=1;exitY=0.5;exitDx=0;exitDy=0;entryX=0;entryY=0.5;entryDx=0;entryDy=0;" edge="1" parent="1" source="yj1wivbqtyOfqSycAJC5-55" target="yj1wivbqtyOfqSycAJC5-15">
          <mxGeometry width="50" height="50" relative="1" as="geometry">
            <mxPoint x="630" y="-130" as="sourcePoint" />
            <mxPoint x="680" y="-180" as="targetPoint" />
          </mxGeometry>
        </mxCell>
        <mxCell id="yj1wivbqtyOfqSycAJC5-59" value="&amp;lt;&amp;lt;extends&amp;gt;&amp;gt;&amp;nbsp;" style="edgeLabel;html=1;align=center;verticalAlign=middle;resizable=0;points=[];" vertex="1" connectable="0" parent="yj1wivbqtyOfqSycAJC5-58">
          <mxGeometry x="0.3183" relative="1" as="geometry">
            <mxPoint as="offset" />
          </mxGeometry>
        </mxCell>
      </root>
    </mxGraphModel>
  </diagram>
</mxfile>
